<svg xmlns="http://www.w3.org/2000/svg" width="1024" height="1024" viewBox="0 0 1024 1024">
  <defs>
    <linearGradient id="bg" x1="0" y1="0" x2="1024" y2="1024" gradientUnits="userSpaceOnUse">
      <stop offset="0" stop-color="#4F8CFF"/>
      <stop offset="0.55" stop-color="#6C7BFF"/>
      <stop offset="1" stop-color="#8B5CF6"/>
    </linearGradient>
    <linearGradient id="gloss" x1="0" y1="0" x2="0" y2="1">
      <stop offset="0" stop-color="#ffffff" stop-opacity="0.30"/>
      <stop offset="0.45" stop-color="#ffffff" stop-opacity="0.04"/>
      <stop offset="1" stop-color="#ffffff" stop-opacity="0"/>
    </linearGradient>
  </defs>

  <!-- 圆角渐变底 -->
  <rect x="0" y="0" width="1024" height="1024" rx="190" fill="url(#bg)"/>
  <!-- 顶部高光 -->
  <rect x="0" y="0" width="1024" height="560" rx="190" fill="url(#gloss)"/>

  <!-- 闪电：代表 lite（轻量 / 智能 / 快速） -->
  <path d="M635 90 L370 440 L465 440 L355 670 L710 360 L590 360 L695 90 Z"
        fill="#ffffff"/>

  <!-- 齿轮：代表 work（生产力工具） -->
  <g transform="translate(512 830)">
    <rect x="-20" y="-160" width="40" height="85" rx="10" fill="#ffffff"/>
    <rect x="-20" y="-160" width="40" height="85" rx="10" fill="#ffffff" transform="rotate(45)"/>
    <rect x="-20" y="-160" width="40" height="85" rx="10" fill="#ffffff" transform="rotate(90)"/>
    <rect x="-20" y="-160" width="40" height="85" rx="10" fill="#ffffff" transform="rotate(135)"/>
    <rect x="-20" y="-160" width="40" height="85" rx="10" fill="#ffffff" transform="rotate(180)"/>
    <rect x="-20" y="-160" width="40" height="85" rx="10" fill="#ffffff" transform="rotate(225)"/>
    <rect x="-20" y="-160" width="40" height="85" rx="10" fill="#ffffff" transform="rotate(270)"/>
    <rect x="-20" y="-160" width="40" height="85" rx="10" fill="#ffffff" transform="rotate(315)"/>
    <circle r="105" fill="#ffffff"/>
    <circle r="42" fill="url(#bg)"/>
  </g>
</svg>